<?xml version="1.0" encoding="UTF-8"?>
<svg id="Layer_2" xmlns="http://www.w3.org/2000/svg" viewBox="0 0 863.71 1264.85">
  <defs>
    <style>
      .cls-1 {
        fill: #ecdfcc;
      }
    </style>
  </defs>
  <g id="Layer_1-2" data-name="Layer_1">
    <path class="cls-1" d="M832.99,999.23h30.72c0,92.66-15.19,160.08-45.51,202.29-30.32,42.24-68.16,63.33-113.5,63.33-37.1,0-72.73-13.98-106.89-41.95-34.16-27.95-64.8-102.88-91.87-224.79l-76.63-341.51-262.54,595.61H0L377.65,438.72c-20.13-105.54-44.41-183.66-72.81-234.36-28.4-50.71-63.64-76.06-105.65-76.06-33.77,0-63.21,12.82-88.37,38.43-25.16,25.61-39.22,65.19-42.15,118.78h-30.72c1.75-86.34,19.11-155.51,52.06-207.51C122.93,26,164.12,0,213.56,0c31.76,0,61.92,13.1,90.46,39.27,28.52,26.2,53.22,70.89,74.11,134.14s53.39,194.3,97.52,393.12l62.88,280.22c25.49,116.07,52.32,193.68,80.49,232.87,28.18,39.19,61.83,58.75,100.99,58.75,66.4,0,104.07-46.36,112.99-139.13Z"/>
  </g>
</svg>